<mxfile host="app.diagrams.net" modified="2023-04-23T02:04:09.265Z" agent="Mozilla/5.0 (Macintosh; Intel Mac OS X 10_15_7) AppleWebKit/537.36 (KHTML, like Gecko) Chrome/110.0.0.0 Safari/537.36" etag="-DBl7E_OSq1AMshs6GA8" version="21.2.1" type="github">
  <diagram name="第 1 页" id="g1r1KgCTIPNfiy5Oy0Je">
    <mxGraphModel dx="1194" dy="765" grid="1" gridSize="10" guides="1" tooltips="1" connect="1" arrows="1" fold="1" page="1" pageScale="1" pageWidth="827" pageHeight="1169" math="0" shadow="0">
      <root>
        <mxCell id="0" />
        <mxCell id="1" parent="0" />
        <mxCell id="8a-b2sZ_Ob8FrX4KJ4Vy-3" value="200/500" style="edgeStyle=orthogonalEdgeStyle;rounded=0;orthogonalLoop=1;jettySize=auto;html=1;entryX=0.5;entryY=0;entryDx=0;entryDy=0;" edge="1" parent="1" source="8a-b2sZ_Ob8FrX4KJ4Vy-1" target="8a-b2sZ_Ob8FrX4KJ4Vy-2">
          <mxGeometry relative="1" as="geometry">
            <mxPoint as="offset" />
          </mxGeometry>
        </mxCell>
        <mxCell id="8a-b2sZ_Ob8FrX4KJ4Vy-1" value="请求url" style="ellipse;whiteSpace=wrap;html=1;aspect=fixed;" vertex="1" parent="1">
          <mxGeometry x="330" y="190" width="80" height="80" as="geometry" />
        </mxCell>
        <mxCell id="8a-b2sZ_Ob8FrX4KJ4Vy-2" value="漏洞利用" style="ellipse;whiteSpace=wrap;html=1;aspect=fixed;" vertex="1" parent="1">
          <mxGeometry x="330" y="390" width="80" height="80" as="geometry" />
        </mxCell>
        <mxCell id="8a-b2sZ_Ob8FrX4KJ4Vy-4" value="" style="curved=1;endArrow=classic;html=1;rounded=0;exitX=0.975;exitY=0.219;exitDx=0;exitDy=0;exitPerimeter=0;" edge="1" parent="1" source="8a-b2sZ_Ob8FrX4KJ4Vy-1">
          <mxGeometry width="50" height="50" relative="1" as="geometry">
            <mxPoint x="420" y="200" as="sourcePoint" />
            <mxPoint x="400" y="260" as="targetPoint" />
            <Array as="points">
              <mxPoint x="430" y="190" />
              <mxPoint x="480" y="220" />
              <mxPoint x="470" y="270" />
              <mxPoint x="420" y="280" />
            </Array>
          </mxGeometry>
        </mxCell>
        <mxCell id="8a-b2sZ_Ob8FrX4KJ4Vy-5" value="403/405/501&lt;br&gt;" style="edgeLabel;html=1;align=center;verticalAlign=middle;resizable=0;points=[];" vertex="1" connectable="0" parent="8a-b2sZ_Ob8FrX4KJ4Vy-4">
          <mxGeometry x="-0.0493" y="-4" relative="1" as="geometry">
            <mxPoint as="offset" />
          </mxGeometry>
        </mxCell>
        <mxCell id="8a-b2sZ_Ob8FrX4KJ4Vy-7" value="" style="edgeStyle=orthogonalEdgeStyle;rounded=0;orthogonalLoop=1;jettySize=auto;html=1;" edge="1" parent="1" source="8a-b2sZ_Ob8FrX4KJ4Vy-6" target="8a-b2sZ_Ob8FrX4KJ4Vy-1">
          <mxGeometry relative="1" as="geometry" />
        </mxCell>
        <mxCell id="8a-b2sZ_Ob8FrX4KJ4Vy-6" value="路径探测" style="ellipse;whiteSpace=wrap;html=1;aspect=fixed;" vertex="1" parent="1">
          <mxGeometry x="330" y="40" width="80" height="80" as="geometry" />
        </mxCell>
        <mxCell id="8a-b2sZ_Ob8FrX4KJ4Vy-8" value="" style="curved=1;endArrow=classic;html=1;rounded=0;exitX=0;exitY=0.5;exitDx=0;exitDy=0;entryX=0;entryY=0.5;entryDx=0;entryDy=0;" edge="1" parent="1" source="8a-b2sZ_Ob8FrX4KJ4Vy-1" target="8a-b2sZ_Ob8FrX4KJ4Vy-6">
          <mxGeometry width="50" height="50" relative="1" as="geometry">
            <mxPoint x="390" y="330" as="sourcePoint" />
            <mxPoint x="440" y="280" as="targetPoint" />
            <Array as="points">
              <mxPoint x="290" y="150" />
            </Array>
          </mxGeometry>
        </mxCell>
        <mxCell id="8a-b2sZ_Ob8FrX4KJ4Vy-9" value="404&lt;br&gt;" style="edgeLabel;html=1;align=center;verticalAlign=middle;resizable=0;points=[];" vertex="1" connectable="0" parent="8a-b2sZ_Ob8FrX4KJ4Vy-8">
          <mxGeometry x="-0.0691" y="-16" relative="1" as="geometry">
            <mxPoint as="offset" />
          </mxGeometry>
        </mxCell>
      </root>
    </mxGraphModel>
  </diagram>
</mxfile>
